<?xml version="1.0" encoding="UTF-8" standalone="no"?>
<svg xmlns="http://www.w3.org/2000/svg" xmlns:xlink="http://www.w3.org/1999/xlink" width="141.955mm" height="40.891mm" viewBox="189.027435 -166.283813 141.954559 40.891388">
    <path transform="matrix(1,0,0,-1,0,0)" style="stroke:none;fill:#000000;fill-rule:evenodd" d="M209.128998,161.394501C209.649933,157.492615,210.221924,151.786346,210.582993,146.889633C210.826096,143.592621,211.674179,134.603729,211.928009,132.633636C211.998535,132.086166,211.852661,132.056015,209.243973,132.07872C207.72673,132.091934,206.322693,132.125793,206.123871,132.153992C205.873703,132.189453,205.703278,133.151413,205.570435,135.277802C205.464859,136.967697,205.34967,138.378159,205.314468,138.41214C205.279266,138.446121,203.982971,138.441055,202.433823,138.400894C200.884659,138.360733,199.236908,138.372833,198.772125,138.427795C197.709167,138.553513,197.587372,138.374146,196.308929,134.80072C195.626831,132.894135,195.129456,131.870392,194.83252,131.76181C194.288101,131.562729,189.189728,131.652481,189.030777,131.863953C188.968521,131.946762,189.628418,133.580475,190.497208,135.494431C191.365997,137.408386,192.746857,140.679321,193.565781,142.763184C194.956451,146.301956,200.245575,159.255081,201.918274,163.218567C202.467072,164.518921,202.796066,164.991516,203.167511,165.013031C205.54599,165.150864,208.243912,164.998413,208.471619,164.713318C208.613144,164.536133,208.908966,163.042664,209.128998,161.394501zM204.410461,156.049957C204.383911,155.980225,204.085159,155.12056,203.746552,154.139587C203.407944,153.158615,202.524231,150.698105,201.78273,148.671783C200.194626,144.331909,200.181503,144.274033,200.808716,144.376068C201.072021,144.418915,202.111908,144.452728,203.119537,144.451248C204.127182,144.449753,205.020966,144.500656,205.105743,144.564377C205.279831,144.695236,204.990631,151.048248,204.669724,154.142349C204.55368,155.261261,204.437012,156.11969,204.410461,156.049957z"/>
    <path transform="matrix(1,0,0,-1,0,0)" style="stroke:none;fill:#000000;fill-rule:evenodd" d="M234.296021,149.207245C232.941986,140.322174,231.774567,132.924606,231.701752,132.768219C231.628922,132.611832,230.795212,132.459412,229.849045,132.42952C226.768616,132.332214,226.970764,132.164322,225.916565,135.695541C224.889145,139.137146,223.468689,144.516708,222.455597,148.803024L221.804825,151.556427L220.375534,141.969055L218.946243,132.381683L218.207153,132.329636C217.058792,132.248749,213.487915,132.336761,213.404297,132.448013C213.363144,132.502777,214.29512,139.862793,215.475357,148.803619L217.621262,165.059662L218.536926,165.093704C219.040527,165.112427,220.250839,165.093781,221.226501,165.052246L223.000443,164.976746L224.21106,161.362564C224.876923,159.374756,225.666229,156.811676,225.965073,155.666824C226.263931,154.521988,226.947388,152.220886,227.483871,150.553284L228.459305,147.521255L229.624298,156.463776C230.266205,161.391068,230.892349,165.400864,231.018829,165.394196C231.145065,165.387543,232.330872,165.38269,233.653931,165.383408C234.97699,165.384125,236.216644,165.379578,236.408691,165.373306C236.695221,165.363968,236.315994,162.462189,234.296021,149.207245z"/>
    <path transform="matrix(1,0,0,-1,0,0)" style="stroke:none;fill:#000000;fill-rule:evenodd" d="M258.733826,165.119507C257.18866,161.702118,251.79364,151.965424,249.883301,149.14653L248.430603,147.00293L247.315552,139.753586L246.200485,132.504242L245.344055,132.481384C242.857483,132.414993,241.258102,132.453979,241.097885,132.5849C240.999084,132.665634,241.356354,135.819565,241.891815,139.593628C242.788574,145.914307,242.836029,146.544067,242.49353,147.577362C242.289001,148.194336,241.561646,151.063675,240.877136,153.953644C240.192657,156.843613,239.278931,160.573883,238.846664,162.243134C238.414398,163.912384,238.126831,165.32782,238.207626,165.38855C238.487762,165.599106,243.55072,165.43222,243.723709,165.206741C243.909088,164.965103,244.308197,163.338684,245.056549,159.775513C245.311111,158.563461,245.771729,156.642456,246.08017,155.506622L246.64093,153.441483L247.785004,155.239624C248.414246,156.228607,249.69754,158.563858,250.63681,160.429062C253.132538,165.385162,253.319504,165.614471,254.864273,165.613739C255.564209,165.613403,256.562744,165.647751,257.083191,165.690063C258.78299,165.828247,259.017578,165.747162,258.733826,165.119507z"/>
    <path transform="matrix(1,0,0,-1,0,0)" style="stroke:none;fill:#000000;fill-rule:evenodd" d="M277.837097,164.624313C279.310089,163.580826,280.253479,162.280487,280.735962,160.628723C281.141968,159.238663,281.12146,158.96524,279.944519,150.076782C278.631439,140.159988,278.474518,139.551437,276.737,137.637283C276.310242,137.167114,276.024628,136.631348,276.102356,136.446686C276.180084,136.262024,277.021362,134.759308,277.971924,133.10733C280.002167,129.578888,281.274475,127.183769,281.249146,126.938072C281.206879,126.528564,278.842896,125.409653,277.983551,125.392426C277.118347,125.375076,276.934326,125.518135,275.541351,127.290787C274.712769,128.3452,273.400452,130.29007,272.625092,131.612701C271.849731,132.935349,271.162964,134.024933,271.098969,134.034012C271.034943,134.043091,270.603333,133.813446,270.139801,133.523697C269.045227,132.839462,266.417023,132.892059,264.534454,133.635864C262.818481,134.313858,261.396912,136.120392,261.213776,137.85585C261.125732,138.689926,261.563812,142.12442,262.634979,148.998169C264.49054,160.905396,264.640686,161.373032,267.327148,163.610291C269.032745,165.030731,270.176971,165.541138,272.339539,165.846176C274.044342,166.086655,276.56308,165.526855,277.837097,164.624313zM271.805359,159.56543C270.862823,159.431671,269.402832,158.285583,269.287903,157.589249C268.462402,152.587402,266.763184,139.605103,266.908722,139.411499C267.017365,139.266968,267.650726,138.993896,268.316193,138.804657C269.219238,138.547867,269.5383,138.546432,269.574097,138.798981C269.627869,139.178284,268.692505,141.011383,268.143921,141.601868C267.829834,141.939896,267.8909,142.06781,268.651886,142.665726C269.127625,143.03952,269.720978,143.316437,269.970459,143.281067C270.21991,143.245697,270.969055,142.599579,271.635193,141.845245C272.301331,141.090927,272.906433,140.518906,272.979858,140.574097C273.208282,140.745789,275.240356,154.050888,275.354187,156.120132C275.516296,159.065979,274.594116,159.961212,271.805359,159.56543z"/>
    <path transform="matrix(1,0,0,-1,0,0)" style="stroke:none;fill:#000000;fill-rule:evenodd" d="M301.589783,159.912415C301.143127,156.66832,300.244019,150.782303,299.591766,146.832367C298.489166,140.155136,298.351959,139.565933,297.638428,138.444427C295.323853,134.806229,291.398682,133.112259,287.19574,133.937714C286.076385,134.157562,284.998352,134.552582,284.403137,134.960968C283.174866,135.803741,282.097656,137.730011,282.019287,139.22377C281.985962,139.859024,282.810181,146.108932,283.850891,153.112442L285.743042,165.846085L286.858398,165.843033C287.471832,165.84137,288.585358,165.829132,289.332916,165.815872L290.692139,165.791748L289.11499,153.357956C287.545654,140.985397,287.540375,140.921356,288.04425,140.357056C288.630249,139.70076,290.253754,139.575653,291.68573,140.076447C293.288879,140.637085,293.346252,140.849594,295.435303,153.96965L297.34967,165.992508L299.357422,166.015411C302.764709,166.05426,302.525513,166.70813,301.589783,159.912415z"/>
    <path transform="matrix(1,0,0,-1,0,0)" style="stroke:none;fill:#000000;fill-rule:evenodd" d="M310.607971,163.377899C310.41153,160.46698,306.582275,134.464615,306.321198,134.268646C306.167358,134.153183,301.99765,133.931198,301.442017,134.008896C301.337891,134.023468,302.304138,141.277328,303.589233,150.128586L305.925842,166.221802L306.861237,166.190308C307.375702,166.172974,308.46637,166.084076,309.284912,165.992737L310.773224,165.826675L310.607971,163.377899z"/>
    <path transform="matrix(1,0,0,-1,0,0)" style="stroke:none;fill:#000000;fill-rule:evenodd" d="M330.539734,163.89299C330.154419,161.909958,329.938141,161.38974,328.858978,159.850082C328.177795,158.87822,327.320618,157.556488,326.954102,156.912933C326.587585,156.269379,324.948853,153.707657,323.312408,151.220215C320.086731,146.317047,317.891693,142.827423,317.083679,141.317978C316.610626,140.434265,316.607727,140.368958,317.045807,140.469498C317.306824,140.529404,319.148621,140.58989,321.138641,140.603912C323.128662,140.617935,325.21344,140.663925,325.771515,140.706085C326.32959,140.74826,326.806396,140.702332,326.831085,140.604004C326.855774,140.505692,326.622589,139.078064,326.312927,137.431519C325.756683,134.473846,325.741882,134.437958,325.083893,134.452957C324.71759,134.461304,321.645935,134.427734,318.258026,134.378342C310.800446,134.269623,309.440094,134.263397,309.37146,134.337585C309.342377,134.369019,309.471069,135.688705,309.65744,137.270187L309.996307,140.145615L311.874939,142.819214C312.908173,144.289703,314.485657,146.651855,315.380463,148.068466C318.604492,153.172623,319.207397,154.097702,321.250427,157.075562L323.324493,160.098633L322.209991,160.073502C321.082581,160.04808,314.456055,160.241608,313.850647,160.317642C313.607086,160.348236,313.630768,161.12326,313.942383,163.32135L314.362366,166.283813L319.23056,166.217316C321.908081,166.180756,325.306519,166.1866,326.782654,166.230316C328.25885,166.274048,329.807556,166.278107,330.224304,166.239349L330.981995,166.168884L330.539734,163.89299z"/>
</svg>
